# xmcd
#
# Track frame offsets: 
#        150
#        20012
#        39822
#        61544
#        85914
#        113614
#        139011
#        156871
#        178316
#        204433
#        225038
#        256360
#
# Disc length: 3779 seconds
#
# Revision: 0
# Processed by: cddbd v1.5.2PL0 Copyright (c) Steve Scherf et al.
# Submitted via: ExactAudioCopy v1.0b3
#
DISCID=8b0ec10c
DTITLE=Corey Stevens - The Dreaming Man
DYEAR=2010
DGENRE=Blues
TTITLE0=Good for the Soul
TTITLE1=Why These Blues
TTITLE2=Killer Blues
TTITLE3=Too Good to Be True
TTITLE4=Running Away
TTITLE5=Ronda Vista Shuffle
TTITLE6=Ride It Out
TTITLE7=The Dreaming Man
TTITLE8=Lost Shadows
TTITLE9=True Blue
TTITLE10=Another Sad Goodbye
TTITLE11=Never Had A Read
EXTD=
EXTT0=
EXTT1=
EXTT2=
EXTT3=
EXTT4=
EXTT5=
EXTT6=
EXTT7=
EXTT8=
EXTT9=
EXTT10=
EXTT11=
PLAYORDER=
